<svg width="24" height="24" viewBox="0 0 24 24" fill="none" xmlns="http://www.w3.org/2000/svg">
<path d="M3.87827 3.5446C3.25068 3.67096 2.74101 3.95317 2.26084 4.42913C1.76381 4.92616 1.49845 5.42739 1.37209 6.09711C1.31734 6.3709 1.30891 6.74998 1.32155 8.14839C1.3384 9.80373 1.34261 9.87113 1.43527 10.1575C1.59533 10.6461 1.84806 11.0842 2.16396 11.4212C2.6315 11.9224 3.12853 12.2172 3.77718 12.3731C4.09309 12.4489 4.29527 12.4531 6.97836 12.4531C9.76254 12.4531 9.84678 12.4489 9.98156 12.3689C10.0574 12.3226 10.1543 12.2257 10.2006 12.1499C10.2806 12.0151 10.2848 11.9308 10.2848 9.14665C10.2848 6.46356 10.2806 6.26138 10.2048 5.94548C10.049 5.29682 9.75411 4.79979 9.25287 4.33225C8.91591 4.01635 8.47785 3.76363 7.98925 3.60357C7.70283 3.50669 7.64386 3.50669 5.92534 3.49826C4.56905 3.48984 4.08888 3.49826 3.87827 3.5446ZM7.42905 4.83349C8.14931 4.98513 8.73058 5.53269 8.91591 6.24032C8.97067 6.45093 8.97909 6.86371 8.97909 8.81811V11.1474H6.64982C4.69542 11.1474 4.28263 11.139 4.07203 11.0842C3.35176 10.8947 2.79577 10.3008 2.6652 9.57207C2.60623 9.24353 2.60202 6.69523 2.6652 6.3709C2.7368 5.98339 2.90107 5.68012 3.20855 5.37264C3.5034 5.07779 3.76455 4.93037 4.13521 4.84613C4.44269 4.77873 7.11314 4.7661 7.42905 4.83349Z" fill="#212B36"/>
<path d="M14.1752 3.52775C13.8551 3.58251 13.3834 3.76363 13.0506 3.96159C12.6252 4.21432 12.1113 4.7661 11.8923 5.21258C11.5385 5.92442 11.5469 5.8486 11.5469 9.12138C11.5469 11.9308 11.5511 12.0151 11.6311 12.1499C11.6775 12.2257 11.7743 12.3226 11.8502 12.3689C11.9849 12.4489 12.0692 12.4531 14.8534 12.4531C17.5365 12.4531 17.7386 12.4489 18.0545 12.3731C18.7032 12.2172 19.2002 11.9224 19.6678 11.4212C19.9837 11.0842 20.2364 10.6461 20.3964 10.1575C20.4891 9.87113 20.4933 9.80373 20.5102 8.14839C20.5228 6.74998 20.5144 6.3709 20.4596 6.09711C20.3333 5.42739 20.0679 4.92616 19.5709 4.42913C19.2171 4.07532 18.9222 3.87735 18.4968 3.70466C17.9956 3.50248 17.7344 3.48142 15.999 3.48563C15.1145 3.48984 14.2932 3.50669 14.1752 3.52775ZM17.6375 4.83349C18.2904 4.95564 18.8296 5.41476 19.0907 6.07184C19.1876 6.31614 19.1918 6.36247 19.2044 7.79458C19.2129 8.77178 19.2044 9.36147 19.1707 9.54259C19.0402 10.2923 18.4926 10.8904 17.7597 11.0842C17.5491 11.139 17.1363 11.1474 15.1819 11.1474H12.8526V8.81811C12.8526 6.86371 12.8611 6.45093 12.9158 6.24032C13.0969 5.55376 13.6445 5.01461 14.3395 4.84613C14.6259 4.77873 17.2795 4.7661 17.6375 4.83349Z" fill="#FE9F43"/>
<path d="M3.75612 13.7955C3.34334 13.8966 3.09062 14.0103 2.74101 14.242C2.15133 14.6337 1.67536 15.2739 1.43527 16.0068C1.34261 16.2933 1.3384 16.3607 1.32155 18.016C1.30891 19.4144 1.31734 19.7935 1.37209 20.0673C1.49845 20.737 1.76381 21.2382 2.26084 21.7353C2.75786 22.2323 3.2591 22.4976 3.92882 22.624C4.2026 22.6788 4.58169 22.6872 5.9801 22.6745C7.63544 22.6577 7.70283 22.6535 7.98925 22.5608C8.47785 22.4008 8.91591 22.148 9.25287 21.8321C9.75411 21.3646 10.049 20.8676 10.2048 20.2189C10.2806 19.903 10.2848 19.7008 10.2848 17.0177C10.2848 14.2336 10.2806 14.1493 10.2006 14.0145C10.1543 13.9387 10.0574 13.8418 9.98156 13.7955C9.84678 13.7155 9.76675 13.7113 6.9573 13.7155C4.29527 13.7155 4.04676 13.7239 3.75612 13.7955ZM8.97909 17.3463C8.97909 19.3007 8.97067 19.7135 8.91591 19.9241C8.72215 20.657 8.12404 21.2045 7.37429 21.3351C7.19317 21.3688 6.60348 21.3772 5.62628 21.3688C4.19839 21.3562 4.14785 21.352 3.90355 21.2551C3.34755 21.0361 2.96425 20.6528 2.74101 20.0925C2.64414 19.8482 2.63993 19.8019 2.62729 18.3445C2.61886 17.3252 2.62729 16.7692 2.66099 16.5965C2.8042 15.8678 3.34755 15.2739 4.05518 15.0844C4.24051 15.0339 4.71648 15.0212 6.63297 15.0212L8.97909 15.017V17.3463Z" fill="#FE9F43"/>
<path d="M11.8501 13.7955C11.7743 13.8418 11.6774 13.9387 11.6311 14.0145C11.5511 14.1493 11.5469 14.2336 11.5469 17.0177C11.5469 19.7008 11.5511 19.903 11.6269 20.2189C11.7828 20.8676 12.0776 21.3646 12.5788 21.8321C12.9158 22.148 13.3539 22.4008 13.8425 22.5608C14.1289 22.6535 14.1963 22.6577 15.8516 22.6745C17.25 22.6872 17.6291 22.6788 17.9029 22.624C18.5726 22.4976 19.0738 22.2323 19.5709 21.7353C20.0679 21.2382 20.3333 20.737 20.4596 20.0673C20.5144 19.7935 20.5228 19.4102 20.5102 18.016L20.4975 16.3017L20.3627 15.9184C20.169 15.3582 19.9289 14.9833 19.5035 14.5789C19.0865 14.183 18.6358 13.9303 18.1009 13.7955C17.785 13.7155 17.6207 13.7113 14.8786 13.7113C12.0692 13.7113 11.9849 13.7155 11.8501 13.7955ZM17.7597 15.0802C18.4842 15.2697 19.0401 15.8763 19.1707 16.6218C19.2044 16.8029 19.2128 17.3926 19.2044 18.3698C19.1918 19.7977 19.1876 19.8482 19.0907 20.0925C18.8717 20.6485 18.4589 21.0613 17.9155 21.2635C17.6923 21.3477 17.5828 21.352 16.1802 21.3688C15.1566 21.3772 14.6048 21.3688 14.4321 21.3351C13.695 21.1919 13.1053 20.6443 12.9158 19.9241C12.861 19.7135 12.8526 19.3007 12.8526 17.3463V15.017H15.1819C17.1363 15.017 17.5491 15.0254 17.7597 15.0802Z" fill="#212B36"/>
</svg>
